<mxfile host="app.diagrams.net" modified="2023-08-03T21:34:18.819Z" agent="Mozilla/5.0 (Windows NT 10.0; Win64; x64) AppleWebKit/537.36 (KHTML, like Gecko) Chrome/115.0.0.0 Safari/537.36" etag="7eYOrMUoIA4wQPTmQ7n5" version="21.6.6" type="device">
  <diagram name="PÃ¡gina-1" id="peKuZp_EpPXg6gKMD2_P">
    <mxGraphModel dx="1434" dy="758" grid="1" gridSize="5" guides="0" tooltips="1" connect="1" arrows="1" fold="1" page="1" pageScale="1" pageWidth="1169" pageHeight="827" math="0" shadow="0">
      <root>
        <mxCell id="0" />
        <mxCell id="1" parent="0" />
        <mxCell id="msl0Qr5RtQ91YMzilRN1-1" value="USER" style="rounded=0;whiteSpace=wrap;html=1;" vertex="1" parent="1">
          <mxGeometry x="210" y="380" width="90" height="40" as="geometry" />
        </mxCell>
        <mxCell id="msl0Qr5RtQ91YMzilRN1-2" value="has" style="shape=rhombus;perimeter=rhombusPerimeter;whiteSpace=wrap;html=1;align=center;fillColor=none;gradientColor=none;" vertex="1" parent="1">
          <mxGeometry x="350" y="368" width="120" height="65" as="geometry" />
        </mxCell>
        <mxCell id="msl0Qr5RtQ91YMzilRN1-3" value="" style="endArrow=none;html=1;rounded=0;entryX=0;entryY=0.5;entryDx=0;entryDy=0;" edge="1" parent="1" target="msl0Qr5RtQ91YMzilRN1-2">
          <mxGeometry relative="1" as="geometry">
            <mxPoint x="300" y="400" as="sourcePoint" />
            <mxPoint x="460" y="400" as="targetPoint" />
          </mxGeometry>
        </mxCell>
        <mxCell id="msl0Qr5RtQ91YMzilRN1-4" value="" style="endArrow=none;html=1;rounded=0;entryX=0;entryY=0.5;entryDx=0;entryDy=0;exitX=1;exitY=0.5;exitDx=0;exitDy=0;" edge="1" parent="1" source="msl0Qr5RtQ91YMzilRN1-2" target="msl0Qr5RtQ91YMzilRN1-5">
          <mxGeometry relative="1" as="geometry">
            <mxPoint x="500" y="400" as="sourcePoint" />
            <mxPoint x="530" y="400.5" as="targetPoint" />
          </mxGeometry>
        </mxCell>
        <mxCell id="msl0Qr5RtQ91YMzilRN1-5" value="ACCOUNT" style="rounded=0;whiteSpace=wrap;html=1;gradientColor=none;fillColor=none;" vertex="1" parent="1">
          <mxGeometry x="520" y="380.5" width="90" height="40" as="geometry" />
        </mxCell>
        <mxCell id="msl0Qr5RtQ91YMzilRN1-6" value="" style="ellipse;whiteSpace=wrap;html=1;aspect=fixed;" vertex="1" parent="1">
          <mxGeometry x="170" y="420" width="10" height="10" as="geometry" />
        </mxCell>
        <mxCell id="msl0Qr5RtQ91YMzilRN1-7" value="" style="ellipse;whiteSpace=wrap;html=1;aspect=fixed;strokeColor=#000000;fillStyle=solid;fillColor=none;" vertex="1" parent="1">
          <mxGeometry x="170" y="400" width="10" height="10" as="geometry" />
        </mxCell>
        <mxCell id="msl0Qr5RtQ91YMzilRN1-8" value="" style="ellipse;whiteSpace=wrap;html=1;aspect=fixed;" vertex="1" parent="1">
          <mxGeometry x="170" y="380" width="10" height="10" as="geometry" />
        </mxCell>
        <mxCell id="msl0Qr5RtQ91YMzilRN1-9" value="" style="ellipse;whiteSpace=wrap;html=1;aspect=fixed;fillColor=#000000;" vertex="1" parent="1">
          <mxGeometry x="170" y="360" width="10" height="10" as="geometry" />
        </mxCell>
        <mxCell id="msl0Qr5RtQ91YMzilRN1-10" value="" style="endArrow=none;html=1;rounded=0;entryX=1;entryY=0.5;entryDx=0;entryDy=0;exitX=0;exitY=0;exitDx=0;exitDy=0;" edge="1" parent="1" source="msl0Qr5RtQ91YMzilRN1-1" target="msl0Qr5RtQ91YMzilRN1-9">
          <mxGeometry width="50" height="50" relative="1" as="geometry">
            <mxPoint x="190" y="410" as="sourcePoint" />
            <mxPoint x="240" y="360" as="targetPoint" />
            <Array as="points">
              <mxPoint x="200" y="365" />
            </Array>
          </mxGeometry>
        </mxCell>
        <mxCell id="msl0Qr5RtQ91YMzilRN1-11" value="" style="endArrow=none;html=1;rounded=0;entryX=1;entryY=0.5;entryDx=0;entryDy=0;exitX=0;exitY=0.25;exitDx=0;exitDy=0;" edge="1" parent="1" source="msl0Qr5RtQ91YMzilRN1-1" target="msl0Qr5RtQ91YMzilRN1-8">
          <mxGeometry width="50" height="50" relative="1" as="geometry">
            <mxPoint x="220" y="390" as="sourcePoint" />
            <mxPoint x="190" y="375" as="targetPoint" />
            <Array as="points">
              <mxPoint x="200" y="385" />
            </Array>
          </mxGeometry>
        </mxCell>
        <mxCell id="msl0Qr5RtQ91YMzilRN1-12" value="" style="endArrow=none;html=1;rounded=0;entryX=1;entryY=0.5;entryDx=0;entryDy=0;exitX=0;exitY=0.5;exitDx=0;exitDy=0;" edge="1" parent="1" source="msl0Qr5RtQ91YMzilRN1-1" target="msl0Qr5RtQ91YMzilRN1-7">
          <mxGeometry width="50" height="50" relative="1" as="geometry">
            <mxPoint x="230" y="400" as="sourcePoint" />
            <mxPoint x="200" y="385" as="targetPoint" />
            <Array as="points">
              <mxPoint x="200" y="405" />
            </Array>
          </mxGeometry>
        </mxCell>
        <mxCell id="msl0Qr5RtQ91YMzilRN1-13" value="" style="endArrow=none;html=1;rounded=0;entryX=1;entryY=0.5;entryDx=0;entryDy=0;exitX=0;exitY=0.75;exitDx=0;exitDy=0;" edge="1" parent="1" source="msl0Qr5RtQ91YMzilRN1-1" target="msl0Qr5RtQ91YMzilRN1-6">
          <mxGeometry width="50" height="50" relative="1" as="geometry">
            <mxPoint x="240" y="410" as="sourcePoint" />
            <mxPoint x="210" y="395" as="targetPoint" />
            <Array as="points">
              <mxPoint x="200" y="425" />
            </Array>
          </mxGeometry>
        </mxCell>
        <mxCell id="msl0Qr5RtQ91YMzilRN1-14" value="id" style="text;html=1;strokeColor=none;fillColor=none;align=center;verticalAlign=middle;whiteSpace=wrap;rounded=0;" vertex="1" parent="1">
          <mxGeometry x="140" y="360" width="30" height="10" as="geometry" />
        </mxCell>
        <mxCell id="msl0Qr5RtQ91YMzilRN1-15" value="name" style="text;html=1;strokeColor=none;fillColor=none;align=center;verticalAlign=middle;whiteSpace=wrap;rounded=0;" vertex="1" parent="1">
          <mxGeometry x="130" y="380.5" width="30" height="10" as="geometry" />
        </mxCell>
        <mxCell id="msl0Qr5RtQ91YMzilRN1-16" value="email" style="text;html=1;strokeColor=none;fillColor=none;align=center;verticalAlign=middle;whiteSpace=wrap;rounded=0;" vertex="1" parent="1">
          <mxGeometry x="130" y="400" width="30" height="10" as="geometry" />
        </mxCell>
        <mxCell id="msl0Qr5RtQ91YMzilRN1-17" value="password" style="text;html=1;strokeColor=none;fillColor=none;align=center;verticalAlign=middle;whiteSpace=wrap;rounded=0;" vertex="1" parent="1">
          <mxGeometry x="120" y="420" width="30" height="10" as="geometry" />
        </mxCell>
        <mxCell id="msl0Qr5RtQ91YMzilRN1-18" value="(1,n)" style="text;html=1;align=center;verticalAlign=middle;resizable=0;points=[];autosize=1;strokeColor=none;fillColor=none;" vertex="1" parent="1">
          <mxGeometry x="303" y="398" width="45" height="30" as="geometry" />
        </mxCell>
        <mxCell id="msl0Qr5RtQ91YMzilRN1-19" value="(1,1)" style="text;html=1;align=center;verticalAlign=middle;resizable=0;points=[];autosize=1;strokeColor=none;fillColor=none;" vertex="1" parent="1">
          <mxGeometry x="470" y="398" width="50" height="30" as="geometry" />
        </mxCell>
        <mxCell id="msl0Qr5RtQ91YMzilRN1-20" value="is associated" style="shape=rhombus;perimeter=rhombusPerimeter;whiteSpace=wrap;html=1;align=center;fillColor=none;gradientColor=none;" vertex="1" parent="1">
          <mxGeometry x="670" y="368" width="120" height="65" as="geometry" />
        </mxCell>
        <mxCell id="msl0Qr5RtQ91YMzilRN1-21" value="" style="endArrow=none;html=1;rounded=0;entryX=0;entryY=0.5;entryDx=0;entryDy=0;exitX=1;exitY=0.5;exitDx=0;exitDy=0;" edge="1" parent="1" source="msl0Qr5RtQ91YMzilRN1-20" target="msl0Qr5RtQ91YMzilRN1-22">
          <mxGeometry relative="1" as="geometry">
            <mxPoint x="820" y="400" as="sourcePoint" />
            <mxPoint x="850" y="400.5" as="targetPoint" />
          </mxGeometry>
        </mxCell>
        <mxCell id="msl0Qr5RtQ91YMzilRN1-22" value="BANK&lt;br&gt;ACCOUNT" style="rounded=0;whiteSpace=wrap;html=1;gradientColor=none;fillColor=none;" vertex="1" parent="1">
          <mxGeometry x="840" y="380.5" width="90" height="40" as="geometry" />
        </mxCell>
        <mxCell id="msl0Qr5RtQ91YMzilRN1-25" value="" style="ellipse;whiteSpace=wrap;html=1;aspect=fixed;fillColor=#000000;" vertex="1" parent="1">
          <mxGeometry x="960" y="395" width="10" height="10" as="geometry" />
        </mxCell>
        <mxCell id="msl0Qr5RtQ91YMzilRN1-28" value="" style="endArrow=none;html=1;rounded=0;exitX=1;exitY=0.5;exitDx=0;exitDy=0;entryX=0;entryY=0.5;entryDx=0;entryDy=0;" edge="1" parent="1" source="msl0Qr5RtQ91YMzilRN1-22" target="msl0Qr5RtQ91YMzilRN1-25">
          <mxGeometry width="50" height="50" relative="1" as="geometry">
            <mxPoint x="950" y="401" as="sourcePoint" />
            <mxPoint x="980" y="375" as="targetPoint" />
            <Array as="points">
              <mxPoint x="945" y="400" />
            </Array>
          </mxGeometry>
        </mxCell>
        <mxCell id="msl0Qr5RtQ91YMzilRN1-32" value="account number" style="text;html=1;strokeColor=none;fillColor=none;align=center;verticalAlign=middle;whiteSpace=wrap;rounded=0;" vertex="1" parent="1">
          <mxGeometry x="975" y="395" width="90" height="10" as="geometry" />
        </mxCell>
        <mxCell id="msl0Qr5RtQ91YMzilRN1-35" value="(1,n)" style="text;html=1;align=center;verticalAlign=middle;resizable=0;points=[];autosize=1;strokeColor=none;fillColor=none;" vertex="1" parent="1">
          <mxGeometry x="793" y="398" width="45" height="30" as="geometry" />
        </mxCell>
        <mxCell id="msl0Qr5RtQ91YMzilRN1-36" value="transfers" style="shape=rhombus;perimeter=rhombusPerimeter;whiteSpace=wrap;html=1;align=center;fillColor=none;gradientColor=none;" vertex="1" parent="1">
          <mxGeometry x="505" y="240" width="120" height="65" as="geometry" />
        </mxCell>
        <mxCell id="msl0Qr5RtQ91YMzilRN1-37" value="" style="endArrow=none;html=1;rounded=0;entryX=0;entryY=0.5;entryDx=0;entryDy=0;exitX=0;exitY=0.25;exitDx=0;exitDy=0;" edge="1" parent="1" source="msl0Qr5RtQ91YMzilRN1-5" target="msl0Qr5RtQ91YMzilRN1-36">
          <mxGeometry width="50" height="50" relative="1" as="geometry">
            <mxPoint x="350" y="340" as="sourcePoint" />
            <mxPoint x="400" y="290" as="targetPoint" />
            <Array as="points">
              <mxPoint x="470" y="390" />
              <mxPoint x="470" y="273" />
            </Array>
          </mxGeometry>
        </mxCell>
        <mxCell id="msl0Qr5RtQ91YMzilRN1-38" value="" style="endArrow=none;html=1;rounded=0;entryX=1;entryY=0.5;entryDx=0;entryDy=0;exitX=1;exitY=0.25;exitDx=0;exitDy=0;" edge="1" parent="1" source="msl0Qr5RtQ91YMzilRN1-5" target="msl0Qr5RtQ91YMzilRN1-36">
          <mxGeometry width="50" height="50" relative="1" as="geometry">
            <mxPoint x="530" y="401" as="sourcePoint" />
            <mxPoint x="515" y="283" as="targetPoint" />
            <Array as="points">
              <mxPoint x="680" y="390" />
              <mxPoint x="680" y="273" />
            </Array>
          </mxGeometry>
        </mxCell>
        <mxCell id="msl0Qr5RtQ91YMzilRN1-39" value="" style="endArrow=none;html=1;rounded=0;entryX=0;entryY=0.5;entryDx=0;entryDy=0;exitX=1;exitY=0.5;exitDx=0;exitDy=0;" edge="1" parent="1" source="msl0Qr5RtQ91YMzilRN1-5" target="msl0Qr5RtQ91YMzilRN1-20">
          <mxGeometry relative="1" as="geometry">
            <mxPoint x="480" y="411" as="sourcePoint" />
            <mxPoint x="530" y="411" as="targetPoint" />
          </mxGeometry>
        </mxCell>
        <mxCell id="msl0Qr5RtQ91YMzilRN1-41" value="" style="ellipse;whiteSpace=wrap;html=1;aspect=fixed;fillColor=#000000;" vertex="1" parent="1">
          <mxGeometry x="520" y="310" width="10" height="10" as="geometry" />
        </mxCell>
        <mxCell id="msl0Qr5RtQ91YMzilRN1-42" value="" style="endArrow=none;html=1;rounded=0;entryX=0.5;entryY=1;entryDx=0;entryDy=0;exitX=0.276;exitY=-0.004;exitDx=0;exitDy=0;exitPerimeter=0;" edge="1" parent="1" target="msl0Qr5RtQ91YMzilRN1-41">
          <mxGeometry width="50" height="50" relative="1" as="geometry">
            <mxPoint x="524.84" y="380.00000000000006" as="sourcePoint" />
            <mxPoint x="620" y="344.66" as="targetPoint" />
            <Array as="points">
              <mxPoint x="525" y="359.66" />
            </Array>
          </mxGeometry>
        </mxCell>
        <mxCell id="msl0Qr5RtQ91YMzilRN1-43" value="description" style="text;html=1;strokeColor=none;fillColor=none;align=center;verticalAlign=middle;whiteSpace=wrap;rounded=0;" vertex="1" parent="1">
          <mxGeometry x="610" y="355" width="30" height="10" as="geometry" />
        </mxCell>
        <mxCell id="msl0Qr5RtQ91YMzilRN1-44" value="" style="ellipse;whiteSpace=wrap;html=1;aspect=fixed;fillColor=none;" vertex="1" parent="1">
          <mxGeometry x="540" y="324.5" width="10" height="10" as="geometry" />
        </mxCell>
        <mxCell id="msl0Qr5RtQ91YMzilRN1-45" value="" style="endArrow=none;html=1;rounded=0;entryX=0.5;entryY=1;entryDx=0;entryDy=0;exitX=0.217;exitY=-0.01;exitDx=0;exitDy=0;exitPerimeter=0;" edge="1" parent="1" target="msl0Qr5RtQ91YMzilRN1-44">
          <mxGeometry width="50" height="50" relative="1" as="geometry">
            <mxPoint x="544.5299999999999" y="380.1" as="sourcePoint" />
            <mxPoint x="630" y="339.5" as="targetPoint" />
            <Array as="points">
              <mxPoint x="545" y="355" />
            </Array>
          </mxGeometry>
        </mxCell>
        <mxCell id="msl0Qr5RtQ91YMzilRN1-46" value="" style="ellipse;whiteSpace=wrap;html=1;aspect=fixed;" vertex="1" parent="1">
          <mxGeometry x="580" y="355" width="10" height="10" as="geometry" />
        </mxCell>
        <mxCell id="msl0Qr5RtQ91YMzilRN1-47" value="" style="endArrow=none;html=1;rounded=0;entryX=0.5;entryY=1;entryDx=0;entryDy=0;" edge="1" parent="1" target="msl0Qr5RtQ91YMzilRN1-46">
          <mxGeometry width="50" height="50" relative="1" as="geometry">
            <mxPoint x="585" y="380.5" as="sourcePoint" />
            <mxPoint x="680" y="360.5" as="targetPoint" />
            <Array as="points">
              <mxPoint x="585" y="375.5" />
            </Array>
          </mxGeometry>
        </mxCell>
        <mxCell id="msl0Qr5RtQ91YMzilRN1-48" value="balance" style="text;html=1;strokeColor=none;fillColor=none;align=center;verticalAlign=middle;whiteSpace=wrap;rounded=0;" vertex="1" parent="1">
          <mxGeometry x="555" y="324.5" width="40" height="10" as="geometry" />
        </mxCell>
        <mxCell id="msl0Qr5RtQ91YMzilRN1-51" value="id" style="text;html=1;strokeColor=none;fillColor=none;align=center;verticalAlign=middle;whiteSpace=wrap;rounded=0;" vertex="1" parent="1">
          <mxGeometry x="520" y="310" width="40" height="10" as="geometry" />
        </mxCell>
        <mxCell id="msl0Qr5RtQ91YMzilRN1-52" value="(0,n)" style="text;html=1;align=center;verticalAlign=middle;resizable=0;points=[];autosize=1;strokeColor=none;fillColor=none;" vertex="1" parent="1">
          <mxGeometry x="610" y="398" width="50" height="30" as="geometry" />
        </mxCell>
        <mxCell id="msl0Qr5RtQ91YMzilRN1-61" value="(0,n)" style="text;html=1;align=center;verticalAlign=middle;resizable=0;points=[];autosize=1;strokeColor=none;fillColor=none;" vertex="1" parent="1">
          <mxGeometry x="580" y="455" width="50" height="30" as="geometry" />
        </mxCell>
        <mxCell id="msl0Qr5RtQ91YMzilRN1-62" value="(0,n)" style="text;html=1;align=center;verticalAlign=middle;resizable=0;points=[];autosize=1;strokeColor=none;fillColor=none;" vertex="1" parent="1">
          <mxGeometry x="470" y="360.5" width="50" height="30" as="geometry" />
        </mxCell>
        <mxCell id="msl0Qr5RtQ91YMzilRN1-66" value="CORPORATE&lt;br&gt;ACCOUNT" style="rounded=0;whiteSpace=wrap;html=1;gradientColor=none;fillColor=none;" vertex="1" parent="1">
          <mxGeometry x="520" y="520" width="90" height="40" as="geometry" />
        </mxCell>
        <mxCell id="msl0Qr5RtQ91YMzilRN1-67" value="" style="endArrow=classic;html=1;rounded=0;exitX=0.5;exitY=0;exitDx=0;exitDy=0;entryX=0.5;entryY=1;entryDx=0;entryDy=0;" edge="1" parent="1" source="msl0Qr5RtQ91YMzilRN1-66" target="msl0Qr5RtQ91YMzilRN1-5">
          <mxGeometry width="50" height="50" relative="1" as="geometry">
            <mxPoint x="560" y="420" as="sourcePoint" />
            <mxPoint x="540" y="440" as="targetPoint" />
          </mxGeometry>
        </mxCell>
        <mxCell id="msl0Qr5RtQ91YMzilRN1-68" value="is associated" style="shape=rhombus;perimeter=rhombusPerimeter;whiteSpace=wrap;html=1;align=center;fillColor=none;gradientColor=none;" vertex="1" parent="1">
          <mxGeometry x="670" y="450.5" width="120" height="65" as="geometry" />
        </mxCell>
        <mxCell id="msl0Qr5RtQ91YMzilRN1-69" value="" style="endArrow=none;html=1;rounded=0;entryX=0.75;entryY=1;entryDx=0;entryDy=0;exitX=0;exitY=0.5;exitDx=0;exitDy=0;" edge="1" parent="1" source="msl0Qr5RtQ91YMzilRN1-68" target="msl0Qr5RtQ91YMzilRN1-5">
          <mxGeometry width="50" height="50" relative="1" as="geometry">
            <mxPoint x="340" y="570" as="sourcePoint" />
            <mxPoint x="390" y="520" as="targetPoint" />
            <Array as="points">
              <mxPoint x="588" y="483" />
            </Array>
          </mxGeometry>
        </mxCell>
        <mxCell id="msl0Qr5RtQ91YMzilRN1-70" value="" style="endArrow=none;html=1;rounded=0;entryX=0.5;entryY=1;entryDx=0;entryDy=0;exitX=1;exitY=0.5;exitDx=0;exitDy=0;" edge="1" parent="1" source="msl0Qr5RtQ91YMzilRN1-68" target="msl0Qr5RtQ91YMzilRN1-22">
          <mxGeometry width="50" height="50" relative="1" as="geometry">
            <mxPoint x="860" y="530" as="sourcePoint" />
            <mxPoint x="900" y="490" as="targetPoint" />
            <Array as="points">
              <mxPoint x="885" y="483" />
            </Array>
          </mxGeometry>
        </mxCell>
        <mxCell id="msl0Qr5RtQ91YMzilRN1-71" value="" style="ellipse;whiteSpace=wrap;html=1;aspect=fixed;fillColor=none;" vertex="1" parent="1">
          <mxGeometry x="560" y="340" width="10" height="10" as="geometry" />
        </mxCell>
        <mxCell id="msl0Qr5RtQ91YMzilRN1-72" value="" style="endArrow=none;html=1;rounded=0;entryX=0.5;entryY=1;entryDx=0;entryDy=0;exitX=0.5;exitY=0;exitDx=0;exitDy=0;" edge="1" parent="1" target="msl0Qr5RtQ91YMzilRN1-71" source="msl0Qr5RtQ91YMzilRN1-5">
          <mxGeometry width="50" height="50" relative="1" as="geometry">
            <mxPoint x="555" y="393.25" as="sourcePoint" />
            <mxPoint x="640" y="352.75" as="targetPoint" />
            <Array as="points" />
          </mxGeometry>
        </mxCell>
        <mxCell id="msl0Qr5RtQ91YMzilRN1-73" value="name" style="text;html=1;strokeColor=none;fillColor=none;align=center;verticalAlign=middle;whiteSpace=wrap;rounded=0;" vertex="1" parent="1">
          <mxGeometry x="570" y="340" width="40" height="10" as="geometry" />
        </mxCell>
        <mxCell id="msl0Qr5RtQ91YMzilRN1-75" value="" style="ellipse;whiteSpace=wrap;html=1;aspect=fixed;strokeColor=#000000;fillStyle=solid;fillColor=none;" vertex="1" parent="1">
          <mxGeometry x="480" y="545" width="10" height="10" as="geometry" />
        </mxCell>
        <mxCell id="msl0Qr5RtQ91YMzilRN1-76" value="" style="ellipse;whiteSpace=wrap;html=1;aspect=fixed;" vertex="1" parent="1">
          <mxGeometry x="480" y="525" width="10" height="10" as="geometry" />
        </mxCell>
        <mxCell id="msl0Qr5RtQ91YMzilRN1-77" value="" style="endArrow=none;html=1;rounded=0;entryX=1;entryY=0.5;entryDx=0;entryDy=0;exitX=0;exitY=0.25;exitDx=0;exitDy=0;" edge="1" parent="1" target="msl0Qr5RtQ91YMzilRN1-76" source="msl0Qr5RtQ91YMzilRN1-66">
          <mxGeometry width="50" height="50" relative="1" as="geometry">
            <mxPoint x="520" y="525" as="sourcePoint" />
            <mxPoint x="500" y="510" as="targetPoint" />
            <Array as="points">
              <mxPoint x="505" y="530" />
            </Array>
          </mxGeometry>
        </mxCell>
        <mxCell id="msl0Qr5RtQ91YMzilRN1-78" value="" style="endArrow=none;html=1;rounded=0;entryX=1;entryY=0.5;entryDx=0;entryDy=0;exitX=0;exitY=0.75;exitDx=0;exitDy=0;" edge="1" parent="1" target="msl0Qr5RtQ91YMzilRN1-75" source="msl0Qr5RtQ91YMzilRN1-66">
          <mxGeometry width="50" height="50" relative="1" as="geometry">
            <mxPoint x="520" y="535" as="sourcePoint" />
            <mxPoint x="510" y="520" as="targetPoint" />
            <Array as="points">
              <mxPoint x="510" y="550" />
            </Array>
          </mxGeometry>
        </mxCell>
        <mxCell id="msl0Qr5RtQ91YMzilRN1-80" value="name" style="text;html=1;strokeColor=none;fillColor=none;align=center;verticalAlign=middle;whiteSpace=wrap;rounded=0;" vertex="1" parent="1">
          <mxGeometry x="445" y="525" width="30" height="10" as="geometry" />
        </mxCell>
        <mxCell id="msl0Qr5RtQ91YMzilRN1-81" value="tax ID" style="text;html=1;strokeColor=none;fillColor=none;align=center;verticalAlign=middle;whiteSpace=wrap;rounded=0;" vertex="1" parent="1">
          <mxGeometry x="440" y="545" width="40" height="10" as="geometry" />
        </mxCell>
        <mxCell id="msl0Qr5RtQ91YMzilRN1-83" value="" style="endArrow=none;html=1;rounded=0;entryX=1;entryY=0.5;entryDx=0;entryDy=0;exitX=1;exitY=0.25;exitDx=0;exitDy=0;" edge="1" parent="1" source="msl0Qr5RtQ91YMzilRN1-5" target="msl0Qr5RtQ91YMzilRN1-36">
          <mxGeometry width="50" height="50" relative="1" as="geometry">
            <mxPoint x="610" y="391" as="sourcePoint" />
            <mxPoint x="625" y="273" as="targetPoint" />
            <Array as="points">
              <mxPoint x="680" y="390" />
              <mxPoint x="680" y="273" />
            </Array>
          </mxGeometry>
        </mxCell>
        <mxCell id="msl0Qr5RtQ91YMzilRN1-84" value="date" style="text;html=1;strokeColor=none;fillColor=none;align=center;verticalAlign=middle;whiteSpace=wrap;rounded=0;" vertex="1" parent="1">
          <mxGeometry x="620" y="220.5" width="35" height="10" as="geometry" />
        </mxCell>
        <mxCell id="msl0Qr5RtQ91YMzilRN1-85" value="" style="ellipse;whiteSpace=wrap;html=1;aspect=fixed;fillColor=none;" vertex="1" parent="1">
          <mxGeometry x="565" y="190" width="10" height="10" as="geometry" />
        </mxCell>
        <mxCell id="msl0Qr5RtQ91YMzilRN1-86" value="" style="endArrow=none;html=1;rounded=0;entryX=0.5;entryY=1;entryDx=0;entryDy=0;exitX=0.543;exitY=0.042;exitDx=0;exitDy=0;exitPerimeter=0;" edge="1" parent="1" target="msl0Qr5RtQ91YMzilRN1-85" source="msl0Qr5RtQ91YMzilRN1-36">
          <mxGeometry width="50" height="50" relative="1" as="geometry">
            <mxPoint x="570" y="245" as="sourcePoint" />
            <mxPoint x="655" y="205" as="targetPoint" />
            <Array as="points" />
          </mxGeometry>
        </mxCell>
        <mxCell id="msl0Qr5RtQ91YMzilRN1-87" value="" style="ellipse;whiteSpace=wrap;html=1;aspect=fixed;" vertex="1" parent="1">
          <mxGeometry x="610" y="220.5" width="10" height="10" as="geometry" />
        </mxCell>
        <mxCell id="msl0Qr5RtQ91YMzilRN1-88" value="" style="endArrow=none;html=1;rounded=0;entryX=0.5;entryY=1;entryDx=0;entryDy=0;exitX=0.916;exitY=0.419;exitDx=0;exitDy=0;exitPerimeter=0;" edge="1" parent="1" target="msl0Qr5RtQ91YMzilRN1-87" source="msl0Qr5RtQ91YMzilRN1-36">
          <mxGeometry width="50" height="50" relative="1" as="geometry">
            <mxPoint x="615" y="246" as="sourcePoint" />
            <mxPoint x="710" y="226" as="targetPoint" />
            <Array as="points">
              <mxPoint x="615" y="241" />
            </Array>
          </mxGeometry>
        </mxCell>
        <mxCell id="msl0Qr5RtQ91YMzilRN1-89" value="status" style="text;html=1;strokeColor=none;fillColor=none;align=center;verticalAlign=middle;whiteSpace=wrap;rounded=0;" vertex="1" parent="1">
          <mxGeometry x="575" y="190" width="45" height="10" as="geometry" />
        </mxCell>
        <mxCell id="msl0Qr5RtQ91YMzilRN1-90" value="" style="ellipse;whiteSpace=wrap;html=1;aspect=fixed;fillColor=none;" vertex="1" parent="1">
          <mxGeometry x="590" y="205.5" width="10" height="10" as="geometry" />
        </mxCell>
        <mxCell id="msl0Qr5RtQ91YMzilRN1-91" value="" style="endArrow=none;html=1;rounded=0;entryX=0.5;entryY=1;entryDx=0;entryDy=0;exitX=1;exitY=0;exitDx=0;exitDy=0;" edge="1" parent="1" target="msl0Qr5RtQ91YMzilRN1-90" source="msl0Qr5RtQ91YMzilRN1-36">
          <mxGeometry width="50" height="50" relative="1" as="geometry">
            <mxPoint x="595" y="246.5" as="sourcePoint" />
            <mxPoint x="670" y="218.25" as="targetPoint" />
            <Array as="points">
              <mxPoint x="595" y="225" />
            </Array>
          </mxGeometry>
        </mxCell>
        <mxCell id="msl0Qr5RtQ91YMzilRN1-92" value="amount" style="text;html=1;strokeColor=none;fillColor=none;align=center;verticalAlign=middle;whiteSpace=wrap;rounded=0;" vertex="1" parent="1">
          <mxGeometry x="605" y="205.5" width="40" height="10" as="geometry" />
        </mxCell>
        <mxCell id="msl0Qr5RtQ91YMzilRN1-93" value="status" style="text;html=1;strokeColor=none;fillColor=none;align=center;verticalAlign=middle;whiteSpace=wrap;rounded=0;" vertex="1" parent="1">
          <mxGeometry x="780" y="510" width="35" height="10" as="geometry" />
        </mxCell>
        <mxCell id="msl0Qr5RtQ91YMzilRN1-94" value="" style="ellipse;whiteSpace=wrap;html=1;aspect=fixed;fillColor=none;" vertex="1" parent="1">
          <mxGeometry x="765" y="510" width="10" height="10" as="geometry" />
        </mxCell>
        <mxCell id="msl0Qr5RtQ91YMzilRN1-95" value="" style="endArrow=none;html=1;rounded=0;entryX=0.5;entryY=0;entryDx=0;entryDy=0;exitX=0.709;exitY=0.788;exitDx=0;exitDy=0;exitPerimeter=0;" edge="1" parent="1" target="msl0Qr5RtQ91YMzilRN1-94">
          <mxGeometry width="50" height="50" relative="1" as="geometry">
            <mxPoint x="770" y="493" as="sourcePoint" />
            <mxPoint x="855" y="547" as="targetPoint" />
            <Array as="points" />
          </mxGeometry>
        </mxCell>
        <mxCell id="msl0Qr5RtQ91YMzilRN1-96" value="" style="ellipse;whiteSpace=wrap;html=1;aspect=fixed;" vertex="1" parent="1">
          <mxGeometry x="780" y="495" width="10" height="10" as="geometry" />
        </mxCell>
        <mxCell id="msl0Qr5RtQ91YMzilRN1-97" value="" style="endArrow=none;html=1;rounded=0;entryX=0.5;entryY=0;entryDx=0;entryDy=0;exitX=0.831;exitY=0.667;exitDx=0;exitDy=0;exitPerimeter=0;" edge="1" parent="1" target="msl0Qr5RtQ91YMzilRN1-96">
          <mxGeometry width="50" height="50" relative="1" as="geometry">
            <mxPoint x="785" y="485" as="sourcePoint" />
            <mxPoint x="885" y="552.5" as="targetPoint" />
            <Array as="points" />
          </mxGeometry>
        </mxCell>
        <mxCell id="msl0Qr5RtQ91YMzilRN1-98" value="direccion" style="text;html=1;strokeColor=none;fillColor=none;align=center;verticalAlign=middle;whiteSpace=wrap;rounded=0;" vertex="1" parent="1">
          <mxGeometry x="800" y="495" width="40" height="10" as="geometry" />
        </mxCell>
        <mxCell id="msl0Qr5RtQ91YMzilRN1-99" value="start_date" style="text;html=1;strokeColor=none;fillColor=none;align=center;verticalAlign=middle;whiteSpace=wrap;rounded=0;" vertex="1" parent="1">
          <mxGeometry x="785" y="525" width="25" height="10" as="geometry" />
        </mxCell>
        <mxCell id="msl0Qr5RtQ91YMzilRN1-100" value="" style="ellipse;whiteSpace=wrap;html=1;aspect=fixed;fillColor=none;" vertex="1" parent="1">
          <mxGeometry x="740" y="540" width="10" height="10" as="geometry" />
        </mxCell>
        <mxCell id="msl0Qr5RtQ91YMzilRN1-101" value="" style="endArrow=none;html=1;rounded=0;entryX=0.5;entryY=0;entryDx=0;entryDy=0;exitX=0.709;exitY=0.788;exitDx=0;exitDy=0;exitPerimeter=0;" edge="1" parent="1" target="msl0Qr5RtQ91YMzilRN1-100">
          <mxGeometry width="50" height="50" relative="1" as="geometry">
            <mxPoint x="745" y="508" as="sourcePoint" />
            <mxPoint x="830" y="562" as="targetPoint" />
            <Array as="points" />
          </mxGeometry>
        </mxCell>
        <mxCell id="msl0Qr5RtQ91YMzilRN1-102" value="" style="ellipse;whiteSpace=wrap;html=1;aspect=fixed;" vertex="1" parent="1">
          <mxGeometry x="755" y="525" width="10" height="10" as="geometry" />
        </mxCell>
        <mxCell id="msl0Qr5RtQ91YMzilRN1-103" value="" style="endArrow=none;html=1;rounded=0;entryX=0.5;entryY=0;entryDx=0;entryDy=0;exitX=0.831;exitY=0.667;exitDx=0;exitDy=0;exitPerimeter=0;" edge="1" parent="1" target="msl0Qr5RtQ91YMzilRN1-102">
          <mxGeometry width="50" height="50" relative="1" as="geometry">
            <mxPoint x="760" y="500" as="sourcePoint" />
            <mxPoint x="860" y="567.5" as="targetPoint" />
            <Array as="points" />
          </mxGeometry>
        </mxCell>
        <mxCell id="msl0Qr5RtQ91YMzilRN1-104" value="end_date" style="text;html=1;strokeColor=none;fillColor=none;align=center;verticalAlign=middle;whiteSpace=wrap;rounded=0;" vertex="1" parent="1">
          <mxGeometry x="760" y="540" width="40" height="10" as="geometry" />
        </mxCell>
        <mxCell id="msl0Qr5RtQ91YMzilRN1-106" value="" style="ellipse;whiteSpace=wrap;html=1;aspect=fixed;fillColor=none;" vertex="1" parent="1">
          <mxGeometry x="725" y="555" width="10" height="10" as="geometry" />
        </mxCell>
        <mxCell id="msl0Qr5RtQ91YMzilRN1-107" value="" style="endArrow=none;html=1;rounded=0;entryX=0.5;entryY=0;entryDx=0;entryDy=0;exitX=0.709;exitY=0.788;exitDx=0;exitDy=0;exitPerimeter=0;" edge="1" parent="1" target="msl0Qr5RtQ91YMzilRN1-106">
          <mxGeometry width="50" height="50" relative="1" as="geometry">
            <mxPoint x="730" y="515" as="sourcePoint" />
            <mxPoint x="815" y="569" as="targetPoint" />
            <Array as="points" />
          </mxGeometry>
        </mxCell>
        <mxCell id="msl0Qr5RtQ91YMzilRN1-110" value="amount" style="text;html=1;strokeColor=none;fillColor=none;align=center;verticalAlign=middle;whiteSpace=wrap;rounded=0;" vertex="1" parent="1">
          <mxGeometry x="740" y="555" width="40" height="10" as="geometry" />
        </mxCell>
        <mxCell id="msl0Qr5RtQ91YMzilRN1-111" value="(p,e)" style="text;html=1;align=center;verticalAlign=middle;resizable=0;points=[];autosize=1;strokeColor=none;fillColor=none;" vertex="1" parent="1">
          <mxGeometry x="520" y="420" width="45" height="30" as="geometry" />
        </mxCell>
        <mxCell id="msl0Qr5RtQ91YMzilRN1-112" value="(0,n)" style="text;html=1;align=center;verticalAlign=middle;resizable=0;points=[];autosize=1;strokeColor=none;fillColor=none;" vertex="1" parent="1">
          <mxGeometry x="630" y="360" width="50" height="30" as="geometry" />
        </mxCell>
        <mxCell id="msl0Qr5RtQ91YMzilRN1-113" value="(0,n)" style="text;html=1;align=center;verticalAlign=middle;resizable=0;points=[];autosize=1;strokeColor=none;fillColor=none;" vertex="1" parent="1">
          <mxGeometry x="840" y="455" width="50" height="30" as="geometry" />
        </mxCell>
      </root>
    </mxGraphModel>
  </diagram>
</mxfile>
